<?xml version="1.0" encoding="UTF-8"?>
<!--Generator: Apple Native CoreSVG 232.5-->
<!DOCTYPE svg
PUBLIC "-//W3C//DTD SVG 1.1//EN"
       "http://www.w3.org/Graphics/SVG/1.1/DTD/svg11.dtd">
<svg version="1.1" xmlns="http://www.w3.org/2000/svg" xmlns:xlink="http://www.w3.org/1999/xlink" width="35.9741" height="28.3569">
 <g>
  <rect height="28.3569" opacity="0" width="35.9741" x="0" y="0"/>
  <path d="M8.8623 0C5.41992 0 1.80664 1.55029 0.183105 4.27246C0.012207 4.57764 0 4.76074 0 5.28564L0 27.2949C0 27.9175 0.402832 28.3203 1.07422 28.3203C1.42822 28.3203 1.7334 28.1982 2.00195 27.9663C3.94287 26.2329 6.65283 25.3662 9.35059 25.3662C11.9507 25.3662 14.2212 26.3428 15.7837 27.6855C15.9546 27.832 16.1499 27.9053 16.3208 27.9053C16.6504 27.9053 16.9189 27.6611 16.9189 27.2827L16.9189 4.3335C16.9189 3.93066 16.8823 3.83301 16.6016 3.45459C14.978 1.25732 12.0361 0 8.8623 0ZM26.77 0C23.584 0 20.6421 1.25732 19.0186 3.45459C18.75 3.83301 18.7134 3.93066 18.7134 4.3335L18.7134 27.2827C18.7134 27.6611 18.9697 27.9053 19.2993 27.9053C19.4702 27.9053 19.6655 27.832 19.8364 27.6855C21.3989 26.3428 23.6694 25.3662 26.2695 25.3662C28.9795 25.3662 31.6772 26.2329 33.6304 27.9663C33.8867 28.1982 34.1919 28.3203 34.5459 28.3203C35.2173 28.3203 35.6201 27.9175 35.6201 27.2949L35.6201 5.28564C35.6201 4.76074 35.6079 4.56543 35.437 4.27246C33.8135 1.55029 30.2124 0 26.77 0Z" fill="rgb(52, 52, 210)" fill-opacity="0.85"/>
 </g>
</svg>
