<?xml version="1.0" encoding="UTF-8"?>
<!--Generator: Apple Native CoreSVG 232.5-->
<!DOCTYPE svg
PUBLIC "-//W3C//DTD SVG 1.1//EN"
       "http://www.w3.org/Graphics/SVG/1.1/DTD/svg11.dtd">
<svg version="1.1" xmlns="http://www.w3.org/2000/svg" xmlns:xlink="http://www.w3.org/1999/xlink" width="46.7651" height="40.1489">
 <g>
  <rect height="40.1489" opacity="0" width="46.7651" x="0" y="0"/>
  <path d="M11.5414 34.2407L1.08643 34.2407C0.488281 34.2407 0 33.7524 0 33.1543C0 32.5684 0.488281 32.0801 1.08643 32.0801L12.2266 32.0801C11.9023 32.8244 11.669 33.5524 11.5414 34.2407ZM21.2056 34.2407L13.6199 34.2407C13.7556 33.5688 14.0172 32.8374 14.3942 32.0801L22.2743 32.0801C21.9544 32.865 21.5973 33.5897 21.2056 34.2407ZM46.4111 33.1543C46.4111 33.7524 45.9229 34.2407 45.3247 34.2407L23.547 34.2407C23.904 33.5766 24.2204 32.8498 24.5034 32.0801L45.3247 32.0801C45.9229 32.0801 46.4111 32.5684 46.4111 33.1543ZM1.9165 21.7163L3.9856 23.776L6.05469 21.7163C6.40869 21.3745 6.9458 21.3623 7.31201 21.7163C7.66602 22.0825 7.66602 22.6196 7.31201 22.9736L5.24578 25.0305L7.31201 27.0874C7.66602 27.4292 7.66602 27.9785 7.31201 28.3447C6.9458 28.6987 6.40869 28.6987 6.05469 28.3447L3.9856 26.285L1.9165 28.3447C1.5625 28.6865 1.02539 28.6987 0.65918 28.3447C0.305176 27.9785 0.305176 27.4414 0.65918 27.0874L2.72541 25.0305L0.65918 22.9736C0.305176 22.6318 0.305176 22.0825 0.65918 21.7163C1.02539 21.3623 1.5625 21.3623 1.9165 21.7163Z"  fill="rgb(52, 52, 210)" fill-opacity="0.85"/>
  <path d="M15.5518 40.1489C21.9482 40.1489 26.1841 32.0312 26.1841 21.6797C26.1841 12.8052 22.2168 5.79834 16.0156 5.79834C12.0728 5.79834 9.00879 9.15527 9.00879 13.4644C9.00879 19.6167 13.9038 24.8901 20.0073 27.6245C20.1904 27.7222 20.3491 27.7466 20.52 27.7466C21.0693 27.7466 21.4722 27.3193 21.4722 26.8555C21.4722 26.5137 21.3013 26.1963 20.8984 25.9888C16.8091 24.0479 11.084 19.7021 11.084 13.4644C11.084 10.3027 13.2324 7.86133 16.0156 7.86133C20.9595 7.86133 24.1089 14.0991 24.1089 21.6797C24.1089 30.6396 20.5933 38.0859 15.7959 38.0859C14.1846 38.0859 13.4399 37.0361 13.4399 35.5835C13.4399 31.0425 20.0562 22.3755 29.3457 22.3755C30.0293 22.3755 30.4077 22.644 30.4077 23.1201C30.4077 24.4385 29.6143 25.647 29.6143 27.0142C29.6143 28.1494 30.4321 28.7842 31.4697 28.7842C34.5581 28.7842 38.3667 23.2422 39.7217 23.2422C41.0034 23.2422 39.4165 28.2104 43.2007 28.2104C43.8232 28.2104 44.5923 28.0396 45.2393 27.6367C45.5688 27.417 45.8008 27.0874 45.8008 26.6724C45.8008 26.1597 45.459 25.7324 44.9219 25.7324C44.4336 25.7324 43.9575 26.1841 43.3838 26.1841C41.5894 26.1841 43.335 20.9595 40.2954 20.9595C37.6343 20.9595 33.4717 26.3916 32.2144 26.3916C32.0435 26.3916 31.9214 26.3062 31.9214 26.0742C31.9214 25.354 32.6904 24.0234 32.6904 22.7539C32.6904 21.2402 31.4697 20.3125 29.4922 20.3125C19.0186 20.3125 11.3281 30.127 11.3281 35.9497C11.3281 38.4033 12.7441 40.1489 15.5518 40.1489Z" fill="blue" fill-opacity="0.85"/>
 </g>
</svg>
