<?xml version="1.0" encoding="UTF-8"?>
<!--Generator: Apple Native CoreSVG 232.5-->
<!DOCTYPE svg
PUBLIC "-//W3C//DTD SVG 1.1//EN"
       "http://www.w3.org/Graphics/SVG/1.1/DTD/svg11.dtd">
<svg version="1.1" xmlns="http://www.w3.org/2000/svg" xmlns:xlink="http://www.w3.org/1999/xlink" width="26.5625" height="33.6548">
 <g>
  <rect height="33.6548" opacity="0" width="26.5625" x="0" y="0"/>
  <path d="M6.93359 21.6797C6.43311 21.6797 6.06689 21.3013 6.06689 20.8252C6.06689 20.3491 6.43311 19.9829 6.93359 19.9829L19.3237 19.9829C19.812 19.9829 20.1782 20.3491 20.1782 20.8252C20.1782 21.3013 19.812 21.6797 19.3237 21.6797ZM6.93359 26.4648C6.43311 26.4648 6.06689 26.0986 6.06689 25.6348C6.06689 25.1587 6.43311 24.7803 6.93359 24.7803L12.854 24.7803C13.3423 24.7803 13.7085 25.1587 13.7085 25.6348C13.7085 26.0986 13.3423 26.4648 12.854 26.4648ZM12.7686 13.9771C12.1826 13.9771 11.8408 13.6597 11.8408 13.0615C11.8408 12.9639 11.8408 12.8906 11.8408 12.8052C11.8408 11.5601 12.4756 10.8521 13.4644 10.1685C14.624 9.35059 15.1245 8.91113 15.1245 8.06885C15.1245 7.05566 14.3433 6.37207 13.0493 6.37207C12.0239 6.37207 11.2793 6.97021 10.9619 7.8125L10.791 8.08105C10.5957 8.38623 10.3394 8.58154 9.92432 8.58154C9.52148 8.58154 9.10645 8.28857 9.10645 7.75146C9.10645 7.55615 9.11865 7.39746 9.15527 7.22656C9.47266 5.77393 11.1938 4.74854 13.1348 4.74854C15.3076 4.74854 17.1265 5.94482 17.1265 7.9834C17.1265 9.44824 16.3086 10.2539 15.0146 11.1084C14.0869 11.7432 13.7085 12.1704 13.7085 12.8906C13.7085 12.9761 13.7085 13.0493 13.7085 13.1348C13.7085 13.6108 13.3423 13.9771 12.7686 13.9771ZM12.7563 17.7246C12.0239 17.7246 11.4136 17.1387 11.4136 16.4429C11.4136 15.7227 12.0117 15.1367 12.7563 15.1367C13.4766 15.1367 14.0747 15.7104 14.0747 16.4429C14.0747 17.1509 13.4521 17.7246 12.7563 17.7246ZM0 28.9062C0 32.0557 1.57471 33.6548 4.69971 33.6548L21.5088 33.6548C24.6338 33.6548 26.2085 32.0557 26.2085 28.9062L26.2085 4.76074C26.2085 1.61133 24.6338 0.012207 21.5088 0.012207L4.69971 0.012207C1.57471 0.012207 0 1.61133 0 4.76074Z" fill="rgb(52, 52, 210)" fill-opacity="0.85"/>
 </g>
</svg>
