<?xml version="1.0" encoding="UTF-8"?>
<!--Generator: Apple Native CoreSVG 232.5-->
<!DOCTYPE svg
PUBLIC "-//W3C//DTD SVG 1.1//EN"
       "http://www.w3.org/Graphics/SVG/1.1/DTD/svg11.dtd">
<svg version="1.1" xmlns="http://www.w3.org/2000/svg" xmlns:xlink="http://www.w3.org/1999/xlink" width="42.4805" height="44.1528">
 <g>
  <rect height="44.1528" opacity="0" width="42.4805" x="0" y="0"/>
  <path d="M40.7471 15.1001L25.2319 7.99561C23.6084 7.26318 22.3389 6.9458 21.0693 6.97021C19.7876 6.9458 18.5181 7.26318 16.8945 7.99561L1.37939 15.1001C0.45166 15.5151 0 16.272 0 17.0288C0 17.7856 0.45166 18.5059 1.37939 18.9331L8.3252 22.0947L18.0298 17.4561C17.8955 17.3096 17.8345 17.1631 17.8345 17.0166C17.8345 16.1011 19.397 15.3442 21.1182 15.3442C22.8271 15.3442 24.3774 16.1011 24.3774 17.0166C24.3774 17.9688 22.8271 18.7256 21.1182 18.7256C20.5566 18.7256 20.0317 18.6523 19.5557 18.5059L10.2051 22.9858L16.8945 26.0498C18.5181 26.7944 19.7876 27.0996 21.0693 27.0874C22.3389 27.0996 23.6084 26.7944 25.2319 26.0498L40.7471 18.9331C41.6748 18.5059 42.1265 17.7856 42.1265 17.0288C42.1265 16.272 41.6748 15.5151 40.7471 15.1001ZM10.1562 25.0977L10.1562 34.5947C12.7441 36.1694 16.4673 37.1948 21.0693 37.1948C30.249 37.1948 36.0107 33.1543 36.0107 28.833L36.0107 23.2422L26.0498 27.8076C24.2432 28.6377 22.6318 29.0527 21.0693 29.0283C19.4946 29.0527 17.8833 28.6377 16.0767 27.8076ZM6.11572 23.2544L6.11572 28.833C6.11572 30.1636 6.90918 31.8115 8.38623 33.2153L8.38623 24.292ZM8.38623 37.9883L10.1562 37.9883L10.1562 34.5947C9.48486 34.1797 8.88672 33.7158 8.38623 33.2153ZM7.15332 38.0737L7.15332 42.2485C7.15332 43.4204 7.88574 44.1528 9.04541 44.1528L9.47266 44.1528C10.6445 44.1528 11.377 43.4204 11.377 42.2485L11.377 38.0737C11.377 36.9141 10.6445 36.1816 9.47266 36.1816L9.04541 36.1816C7.88574 36.1816 7.15332 36.9141 7.15332 38.0737Z" fill="rgb(52, 52, 210)" fill-opacity="0.85"/>
 </g>
</svg>
