<?xml version="1.0" encoding="UTF-8"?>
<!--Generator: Apple Native CoreSVG 232.5-->
<!DOCTYPE svg
PUBLIC "-//W3C//DTD SVG 1.1//EN"
       "http://www.w3.org/Graphics/SVG/1.1/DTD/svg11.dtd">
<svg version="1.1" xmlns="http://www.w3.org/2000/svg" xmlns:xlink="http://www.w3.org/1999/xlink" width="25.2563" height="24.9146">
 <g>
  <rect height="24.9146" opacity="0" width="25.2563" x="0" y="0"/>
  <path d="M24.9023 12.4512C24.9023 19.2505 19.2627 24.9023 12.4512 24.9023C5.65186 24.9023 0 19.2505 0 12.4512C0 5.63965 5.63965 0 12.439 0C19.2505 0 24.9023 5.63965 24.9023 12.4512ZM12.439 6.20117C11.9507 5.70068 11.3037 5.46875 10.5957 5.46875C9.22852 5.46875 7.78809 6.38428 7.72705 7.69043C6.44531 7.83691 5.41992 9.08203 5.41992 10.4126C5.41992 11.0474 5.62744 11.6577 6.11572 12.1948C5.50537 12.8418 5.2124 13.562 5.2124 14.2456C5.2124 15.5762 6.12793 16.5039 7.42188 16.5039C7.83691 16.5039 8.28857 16.4062 8.76465 16.1621C9.11865 16.4795 9.97314 16.9189 10.9497 16.9556C10.7666 16.0767 10.144 14.8438 9.77783 14.1724C10.0098 14.1479 10.2295 14.0991 10.4004 14.0259C11.0596 15.2466 11.6577 16.6016 11.6577 17.4805C11.6577 18.2861 11.5601 19.2749 11.5601 19.6167C11.5601 19.873 11.9141 20.0562 12.439 20.0562C12.9639 20.0562 13.3179 19.873 13.3179 19.6167C13.3179 19.2749 13.2202 18.2861 13.2202 17.4805C13.2202 16.6504 13.7695 15.4053 14.4531 14.0259C14.6484 14.0991 14.856 14.1479 15.1001 14.1724C14.7339 14.8438 14.1235 16.0767 13.9282 16.9556C14.9048 16.9189 15.7593 16.4795 16.1133 16.1621C16.5894 16.4062 17.0532 16.5039 17.4561 16.5039C18.75 16.5039 19.6777 15.5762 19.6777 14.2456C19.6777 13.562 19.3726 12.8418 18.7622 12.1948C19.2505 11.6577 19.458 11.0474 19.458 10.4126C19.458 9.08203 18.4326 7.83691 17.1509 7.69043C17.1021 6.38428 15.6616 5.46875 14.2822 5.46875C13.5864 5.46875 12.9272 5.70068 12.439 6.20117ZM11.9629 13.2935L11.9751 15.21C11.7554 14.6606 11.4868 14.1235 11.0962 13.4644C11.1938 13.3179 11.2671 13.147 11.3281 12.9883C11.5234 13.1226 11.731 13.2324 11.9629 13.2935ZM13.7695 13.4521C13.3911 14.1724 13.1226 14.6729 12.9028 15.1978L12.8784 13.3057C13.1348 13.2446 13.3423 13.1348 13.5498 12.9883C13.6108 13.147 13.6841 13.3057 13.7695 13.4521Z" fill="rgb(52, 52, 210)" fill-opacity="0.85"/>
 </g>
</svg>
