<?xml version="1.0" encoding="UTF-8"?>
<!--Generator: Apple Native CoreSVG 232.5-->
<!DOCTYPE svg
PUBLIC "-//W3C//DTD SVG 1.1//EN"
       "http://www.w3.org/Graphics/SVG/1.1/DTD/svg11.dtd">
<svg version="1.1" xmlns="http://www.w3.org/2000/svg" xmlns:xlink="http://www.w3.org/1999/xlink" width="47.6562" height="41.1255">
 <g>
  <rect height="41.1255" opacity="0" width="47.6562" x="0" y="0"/>
  <path d="M29.6336 10.3516L32.7026 10.3516C35.8521 10.3516 37.4512 11.9507 37.4512 15.0513L37.4512 31.4819C37.4512 34.5947 35.8643 36.1938 33.0688 36.1938L18.3374 36.1938C19.1985 34.7447 19.6899 33.0599 19.6899 31.2744C19.6899 25.8789 15.2466 21.4355 9.85107 21.4355C9.84696 21.4355 9.84284 21.4355 9.83887 21.4362L9.83887 15.0513C9.83887 11.9385 11.438 10.3516 14.5874 10.3516L17.6564 10.3516C17.9487 7.26568 20.4471 4.91943 23.645 4.91943C26.8429 4.91943 29.3413 7.26568 29.6336 10.3516ZM19.8321 10.3516L27.458 10.3516C27.2019 8.35839 25.695 6.97021 23.645 6.97021C21.595 6.97021 20.0882 8.35839 19.8321 10.3516Z" fill="rgb(52, 52, 210)" fill-opacity="0.85"/>
  <path d="M17.7368 31.2744C17.7368 35.5957 14.1357 39.1724 9.85107 39.1724C5.51758 39.1724 1.95312 35.6201 1.95312 31.2744C1.95312 26.9531 5.51758 23.3887 9.85107 23.3887C14.1846 23.3887 17.7368 26.9531 17.7368 31.2744ZM8.95996 27.1851L8.95996 30.3955L5.74951 30.3955C5.23682 30.3955 4.8584 30.7373 4.8584 31.2744C4.8584 31.8237 5.23682 32.1655 5.74951 32.1655L8.95996 32.1655L8.95996 35.376C8.95996 35.9009 9.30176 36.2671 9.85107 36.2671C10.3882 36.2671 10.73 35.9009 10.73 35.376L10.73 32.1655L13.9404 32.1655C14.4653 32.1655 14.8193 31.8237 14.8193 31.2744C14.8193 30.7373 14.4653 30.3955 13.9404 30.3955L10.73 30.3955L10.73 27.1851C10.73 26.6724 10.3882 26.3062 9.85107 26.3062C9.30176 26.3062 8.95996 26.6724 8.95996 27.1851Z" fill="#000" fill-opacity="0.85"/>
 </g>
</svg>
